<svg xmlns="http://www.w3.org/2000/svg" width="36" height="36" id="bag"><path fill="#2b4255" d="M11 1022.361c-2.757 0-4.996 2.224-4.996 4.97v5.523a.5.5 0 1 0 1 0v-5.524c0-2.205 1.772-3.969 3.996-3.969s3.996 1.764 3.996 3.97v5.523a.5.5 0 1 0 1 0v-5.524c0-2.745-2.239-4.969-4.996-4.969z" color="#000" font-family="sans-serif" font-weight="400" overflow="visible" style="line-height:normal;text-indent:0;text-align:start;text-decoration-line:none;text-decoration-style:solid;text-decoration-color:#000;text-transform:none;block-progression:tb;isolation:auto;mix-blend-mode:normal" transform="translate(2 -1018.362)"></path><path fill="#e42c34" d="M7 11.001h16c.554 0 1 .446 1 1v20c0 .554-.446 1-1 1H7c-.554 0-1-.446-1-1v-20c0-.554.446-1 1-1z"></path><path fill="#fcd062" d="M6.056 11.001h16.888c.585 0 1.056.446 1.056 1v20c0 .554-.47 1-1.056 1H6.056c-.585 0-1.056-.446-1.056-1v-20c0-.554.47-1 1.056-1z"></path><path fill="#e6e6e6" d="M11.5 14.501a1 1 0 0 1-1 1 1 1 0 0 1-1-1 1 1 0 0 1 1-1 1 1 0 0 1 1 1zm9 0a1 1 0 0 1-1 1 1 1 0 0 1-1-1 1 1 0 0 1 1-1 1 1 0 0 1 1 1z"></path><path fill="#2b4255" d="M13 1022.365c-2.757 0-4.996 2.224-4.996 4.969v5.521a.5.5 0 1 0 1 0v-5.521c0-2.205 1.772-3.969 3.996-3.969s3.996 1.764 3.996 3.969v5.521a.5.5 0 1 0 1 0v-5.521c0-2.745-2.239-4.969-4.996-4.969z" color="#000" font-family="sans-serif" font-weight="400" overflow="visible" style="line-height:normal;text-indent:0;text-align:start;text-decoration-line:none;text-decoration-style:solid;text-decoration-color:#000;text-transform:none;block-progression:tb;isolation:auto;mix-blend-mode:normal" transform="translate(2 -1018.362)"></path><path fill="#f8b84e" d="M4 11.001c-.554 0-1 .446-1 1v20c0 .554.446 1 1 1h3c-.554 0-1-.446-1-1v-20c0-.554.446-1 1-1z"></path><path fill="#f17f53" d="M4 11.001c-.554 0-1 .446-1 1v.01a1.5 1.233 0 0 0 .75 1.06 1.5 1.233 0 0 0 1.5 0 1.5 1.233 0 0 0 .75-1.06 1.5 1.233 0 0 0 0-.01c0-.554.446-1 1-1H4z"></path><path fill="#60c5b8" d="M15.5 19.001h16c.554 0 1 .446 1 1v12c0 .554-.446 1-1 1h-16c-.554 0-1-.446-1-1v-12c0-.554.446-1 1-1z"></path><path fill="#e6e6e6" d="M20 21.501a1 1 0 0 1-1 1 1 1 0 0 1-1-1 1 1 0 0 1 1-1 1 1 0 0 1 1 1zm9 0a1 1 0 0 1-1 1 1 1 0 0 1-1-1 1 1 0 0 1 1-1 1 1 0 0 1 1 1z"></path><path fill="#2b4255" d="M16.996 1039.363a.5.5 0 0 0-.492.508v3.522c0 2.745 2.239 4.968 4.996 4.968 2.757 0 4.996-2.223 4.996-4.968v-3.522a.5.5 0 1 0-1 0v3.522c0 2.205-1.772 3.968-3.996 3.968s-3.996-1.763-3.996-3.968v-3.522a.5.5 0 0 0-.508-.508z" color="#000" font-family="sans-serif" font-weight="400" overflow="visible" style="line-height:normal;text-indent:0;text-align:start;text-decoration-line:none;text-decoration-style:solid;text-decoration-color:#000;text-transform:none;block-progression:tb;isolation:auto;mix-blend-mode:normal" transform="translate(2 -1018.362)"></path><path fill="#25b39e" d="M12.5 19.001c-.554 0-1 .446-1 1v12c0 .554.446 1 1 1h3c-.554 0-1-.446-1-1v-12c0-.554.446-1 1-1h-3z"></path><path fill="#576d7e" d="M12.5 19.001c-.554 0-1 .446-1 1v.01a1.5 1.233 0 0 0 .75 1.06 1.5 1.233 0 0 0 1.5 0 1.5 1.233 0 0 0 .75-1.06 1.5 1.233 0 0 0 0-.01c0-.554.446-1 1-1h-3z"></path><path fill="#e9eded" style="line-height:normal;text-indent:0;text-align:start;text-decoration-line:none;text-decoration-style:solid;text-decoration-color:#000;text-transform:none;block-progression:tb;isolation:auto;mix-blend-mode:normal" d="M11 5c-3.295 0-5.996 2.68-5.996 5.969v1.033H2c-1.09 0-2 .91-2 2v20c0 1.09.91 2 2 2h27.5c1.09 0 2-.91 2-2v-12c0-1.09-.91-2-2-2H23v-6c0-1.09-.91-2-2-2h-2.004v-1.03c0-3.288-2.701-5.968-5.996-5.968-.336 0-.664.044-.986.098A5.956 5.956 0 0 0 11 5Zm0 1c.346 0 .683.035 1.01.102.32-.065.65-.098.99-.098 2.757 0 4.996 2.223 4.996 4.969v2.029H21c.554 0 1 .446 1 1v7h7.5c.554 0 1 .446 1 1v12c0 .554-.446 1-1 1H2c-.554 0-1-.446-1-1v-20c0-.554.446-1 1-1h4.004v-2.033C6.004 8.223 8.243 6 11 6Zm1.006 1.139c-1.733.436-3.002 1.971-3.002 3.834v2.029h5.992v-2.033c0-1.858-1.264-3.39-2.99-3.83zm-2.23.068c-1.612.511-2.772 1.984-2.772 3.762v2.033h1v-2.03c0-1.514.697-2.854 1.771-3.765zm4.464.008c1.066.91 1.756 2.246 1.756 3.754v2.033h1v-2.03c0-1.771-1.152-3.241-2.756-3.757zm-2.236 1.05c1.147.417 1.992 1.407 1.992 2.704v1.033h-3.992v-1.03c0-1.3.848-2.293 2-2.706z" color="#000" font-family="sans-serif" font-weight="400" overflow="visible" transform="translate(2 -2)"></path></svg>