<svg xmlns="http://www.w3.org/2000/svg" viewBox="0 0 512 512" id="customize"><defs><linearGradient id="a" x1="278.36" x2="402.61" y1="337.74" y2="337.74" gradientUnits="userSpaceOnUse"><stop offset="0" stop-color="#cacfdd"></stop><stop offset="1" stop-color="#eef0f1"></stop></linearGradient></defs><g style="isolation:isolate"><g><path fill="#f5f5f5" d="M385.4,376H80.51c-8.77-.47-16.9-6.31-17.18-17.18V83A17.17,17.17,0,0,1,80.51,65.82H385.4A17.18,17.18,0,0,1,402.57,83V358.85C403.2,366.34,395.17,376.31,385.4,376Z"></path><path fill="#5e6175" d="M402.57,116.21H63.33V83A17.18,17.18,0,0,1,80.51,65.82H385.39A17.18,17.18,0,0,1,402.57,83Z"></path><circle cx="96.09" cy="91.01" r="7.83" fill="#fff"></circle><circle cx="129.75" cy="91.01" r="7.83" fill="#fff"></circle><path fill="#5e6175" d="M405.57 119.21H60.33V83A20.2 20.2 0 0180.51 62.82H385.39A20.2 20.2 0 01405.57 83zm-339.24-6H399.57V83a14.19 14.19 0 00-14.18-14.18H80.51A14.19 14.19 0 0066.33 83zM229.63 351H103.21a18 18 0 01-17.95-17.94V160.4a18 18 0 0117.95-18H229.63a18 18 0 0118 18V333.08A18 18 0 01229.63 351zM103.21 148.45a12 12 0 00-11.95 12V333.08A12 12 0 00103.21 345H229.63a12 12 0 0012-11.94V160.4a12 12 0 00-12-12z"></path><path fill="#a9afc4" d="M121.92 327.4a6.9 6.9 0 01-6.9-6.9V173.76a6.9 6.9 0 1113.79 0V320.5A6.9 6.9 0 01121.92 327.4zM166.42 327.4a6.9 6.9 0 01-6.9-6.9V173.76a6.9 6.9 0 1113.79 0V320.5A6.89 6.89 0 01166.42 327.4zM210.92 327.4a6.89 6.89 0 01-6.89-6.9V173.76a6.9 6.9 0 1113.79 0V320.5A6.9 6.9 0 01210.92 327.4z"></path><path fill="#5e6175" d="M121.92 330.4a9.91 9.91 0 01-9.9-9.9V173.76a9.9 9.9 0 1119.79 0V320.5A9.91 9.91 0 01121.92 330.4zm0-160.54a3.91 3.91 0 00-3.9 3.9V320.5a3.9 3.9 0 107.79 0V173.76A3.9 3.9 0 00121.92 169.86zM166.42 330.4a9.91 9.91 0 01-9.9-9.9V173.76a9.9 9.9 0 1119.79 0V320.5A9.9 9.9 0 01166.42 330.4zm0-160.54a3.91 3.91 0 00-3.9 3.9V320.5a3.9 3.9 0 107.79 0V173.76A3.9 3.9 0 00166.42 169.86zM210.92 330.4a9.9 9.9 0 01-9.89-9.9V173.76a9.9 9.9 0 1119.79 0V320.5A9.91 9.91 0 01210.92 330.4zm0-160.54a3.9 3.9 0 00-3.89 3.9V320.5a3.9 3.9 0 107.79 0V173.76A3.91 3.91 0 00210.92 169.86z"></path><circle cx="121.92" cy="252.93" r="15.67" fill="#dee1ec"></circle><circle cx="166.42" cy="291.95" r="15.67" fill="#e08326"></circle><circle cx="210.92" cy="211.01" r="15.67" fill="#f5f5f5"></circle><path fill="#5e6175" d="M121.92 271.6a18.67 18.67 0 1118.66-18.67A18.69 18.69 0 01121.92 271.6zm0-31.34a12.67 12.67 0 1012.66 12.67A12.69 12.69 0 00121.92 240.26zM166.42 310.62A18.67 18.67 0 11185.09 292 18.69 18.69 0 01166.42 310.62zm0-31.34A12.67 12.67 0 10179.09 292 12.68 12.68 0 00166.42 279.28zM210.92 229.68A18.67 18.67 0 11229.59 211 18.69 18.69 0 01210.92 229.68zm0-31.34A12.67 12.67 0 10223.59 211 12.69 12.69 0 00210.92 198.34z"></path><rect width="37.44" height="37.44" x="273.94" y="165.02" fill="#dee1ec"></rect><rect width="37.44" height="37.44" x="273.94" y="228.07" fill="#e08326"></rect><rect width="37.44" height="37.44" x="273.94" y="291.12" fill="#f5f5f5"></rect><path fill="#5e6175" d="M314.38 205.46H270.94V162h43.44zm-37.44-6h31.44V168H276.94zM314.38 268.51H270.94V225.07h43.44zm-37.44-6h31.44V231.07H276.94zM314.38 331.56H270.94V288.12h43.44zm-37.44-6h31.44V294.12H276.94z"></path><path d="M385.4,376H286.65a91.46,91.46,0,0,1,6.52-21.73l-13.67-31a13,13,0,0,1,15.27-17.87l32.73,8.68A92.19,92.19,0,0,1,402.57,303v55.89C403.2,366.34,395.17,376.31,385.4,376Z" style="mix-blend-mode:multiply" fill="url(#a)"></path><path fill="#5e6175" d="M385.78,379H80.43c-10.53-.51-19.78-8-20.1-20.1V83A20.19,20.19,0,0,1,80.51,62.82H385.39A20.19,20.19,0,0,1,405.57,83V358.73C406.25,368.05,396.91,379,385.78,379ZM80.59,373h304.8c7.22.25,14.49-7,14.18-14.18,0-294.8.35-276.9-.63-280.07a14.24,14.24,0,0,0-13.55-10H80.51A14.18,14.18,0,0,0,66.33,83V358.85C66.59,368.7,74.15,372.65,80.59,373Z"></path><path fill="#f5f5f5" d="M309.52,354.63l-14.95-33.88,35.8,9.49a77.28,77.28,0,1,1-20.85,24.39Z"></path><path fill="#5e6175" d="M377.29,471.84a79.69,79.69,0,0,1-52-19.26,80.63,80.63,0,0,1-19.06-98.08l-16.88-38.25L329.73,327a80.61,80.61,0,0,1,99.84,3.57,80.28,80.28,0,0,1-52.28,141.31ZM299.84,325.25l13,29.52c-18.4,33.72-9,71.63,16.29,93.25a74.28,74.28,0,0,0,96.53-112.93c-25.25-21.58-64.16-25-94.65-1.57Z"></path><path fill="#a9afc4" d="M132.29,406.15h-6v-6h6Zm-16,0h-6v-6h6Zm-16,0h-6v-6h6Zm-16,0c-2.79,0-4.28,0-6.17-.09l.35-6c1.49.09,2.09.08,5.82.08Zm-16.66-1.88a48,48,0,0,1-6-2.19L64,396.59a39.71,39.71,0,0,0,5.25,1.91Zm-15.21-7.54a48,48,0,0,1-4.87-4.14l4.18-4.3A43.31,43.31,0,0,0,56,391.91ZM40.78,384.38a47.54,47.54,0,0,1-3.13-5.57l5.41-2.59a43.21,43.21,0,0,0,2.74,4.88Zm-6.61-15.64a46.15,46.15,0,0,1-1-6.32l6-.52a42.69,42.69,0,0,0,.86,5.53ZM39,352.17H33v-6h6Z"></path><path fill="#e08326" d="M408.7,361.92A12.05,12.05,0,0,1,388,350a42.45,42.45,0,0,0-20.32,0A12.05,12.05,0,0,1,347,361.92a42.53,42.53,0,0,0-10.15,17.6,12.06,12.06,0,0,1,0,23.87A43,43,0,0,0,347,421a12.06,12.06,0,0,1,20.68,11.93,42.53,42.53,0,0,0,20.31,0A12.05,12.05,0,0,1,408.69,421a42.59,42.59,0,0,0,10.15-17.6,12.06,12.06,0,0,1,0-23.87A43,43,0,0,0,408.7,361.92Zm-23.14,42.87a15.4,15.4,0,1,1,5.64-21A15.39,15.39,0,0,1,385.56,404.79Z"></path><rect width="47.34" height="6" x="330.52" y="172.18" fill="#5e6175"></rect><rect width="23.67" height="6" x="330.52" y="189.3" fill="#5e6175"></rect><rect width="47.34" height="6" x="330.52" y="234.31" fill="#5e6175"></rect><rect width="23.67" height="6" x="330.52" y="251.43" fill="#5e6175"></rect><rect width="47.34" height="6" x="330.52" y="296.44" fill="#5e6175"></rect><path fill="#5e6175" d="M416.25 283.51h0a10.62 10.62 0 1119.49 2.34A10.61 10.61 0 01416.25 283.51zm5.78-1.62a4.62 4.62 0 103.2-5.7 4.63 4.63 0 00-3.2 5.7zM462.72 322.81h0a8.29 8.29 0 1115.21 1.83A8.27 8.27 0 01462.72 322.81zm5.77-1.62a2.29 2.29 0 101.59-2.82A2.3 2.3 0 00468.49 321.19z"></path><path fill="#e1830e" d="M409.73,58.76a15.59,15.59,0,0,1,15.59,15.6,15.61,15.61,0,0,1,15.6-15.6,15.59,15.59,0,0,1-15.6-15.59A15.59,15.59,0,0,1,409.73,58.76Z"></path></g></g></svg>