<svg xmlns="http://www.w3.org/2000/svg" width="24" height="24" fill="none" viewBox="0 0 24 24" id="edit"><path fill="#5E94FF" fill-rule="evenodd" d="M4 4.75C3.30964 4.75 2.75 5.30964 2.75 6V20C2.75 20.6904 3.30964 21.25 4 21.25H18C18.6904 21.25 19.25 20.6904 19.25 20V9.5C19.25 9.08579 19.5858 8.75 20 8.75C20.4142 8.75 20.75 9.08579 20.75 9.5V20C20.75 21.5188 19.5188 22.75 18 22.75H4C2.48122 22.75 1.25 21.5188 1.25 20V6C1.25 4.48122 2.48122 3.25 4 3.25H14.5C14.9142 3.25 15.25 3.58579 15.25 4C15.25 4.41421 14.9142 4.75 14.5 4.75H4Z" clip-rule="evenodd"></path><path fill="#5E94FF" d="M20.5303 1.46967C20.2375 1.17678 19.7626 1.17678 19.4697 1.46967L11.4697 9.46967C11.3874 9.552 11.3253 9.65237 11.2885 9.76283L10.2885 12.7628C10.1987 13.0323 10.2688 13.3295 10.4697 13.5303C10.6706 13.7312 10.9677 13.8013 11.2372 13.7115L14.2372 12.7115C14.3476 12.6747 14.448 12.6127 14.5304 12.5303L22.5303 4.53033C22.8232 4.23744 22.8232 3.76256 22.5303 3.46967L20.5303 1.46967Z"></path></svg>